<?xml version="1.0" encoding="UTF-8" standalone="no"?>
<!-- Created with Inkscape (http://www.inkscape.org/) -->

<svg
   width="154.44597mm"
   height="33.533871mm"
   viewBox="0 0 154.44597 33.533871"
   version="1.1"
   id="svg1"
   xml:space="preserve"
   inkscape:version="1.4.3 (0d15f75, 2025-12-25)"
   sodipodi:docname="drawing.svg"
   xmlns:inkscape="http://www.inkscape.org/namespaces/inkscape"
   xmlns:sodipodi="http://sodipodi.sourceforge.net/DTD/sodipodi-0.dtd"
   xmlns="http://www.w3.org/2000/svg"
   xmlns:svg="http://www.w3.org/2000/svg"><sodipodi:namedview
     id="namedview1"
     pagecolor="#ffffff"
     bordercolor="#000000"
     borderopacity="0.25"
     inkscape:showpageshadow="2"
     inkscape:pageopacity="0.0"
     inkscape:pagecheckerboard="0"
     inkscape:deskcolor="#d1d1d1"
     inkscape:document-units="mm"
     inkscape:zoom="0.35412477"
     inkscape:cx="304.97725"
     inkscape:cy="463.11361"
     inkscape:window-width="1649"
     inkscape:window-height="955"
     inkscape:window-x="0"
     inkscape:window-y="33"
     inkscape:window-maximized="0"
     inkscape:current-layer="layer1"
     inkscape:clip-to-page="false" /><defs
     id="defs1" /><g
     inkscape:label="Layer 1"
     inkscape:groupmode="layer"
     id="layer1"
     transform="translate(-23.713539,-26.440522)"><path
       style="fill:currentColor;stroke-width:0.298458"
       d="m 37.542388,59.950157 c -2.41465,-0.210804 -4.06351,-0.633444 -5.81901,-1.49155 -1.34113,-0.65556 -2.4664,-1.456188 -3.49226,-2.484761 -1.87992,-1.8849 -3.20926,-4.317959 -3.92238,-7.179034 -0.8408,-3.373405 -0.78925,-7.111926 0.14486,-10.504277 0.53526,-1.943864 1.60446,-4.086015 2.77133,-5.552351 0.49692,-0.624451 1.42862,-1.564246 2.02593,-2.043525 1.66752,-1.338019 3.67944,-2.277813 5.81724,-2.717305 1.80775,-0.371642 3.83881,-0.455046 5.73826,-0.235638 4.37621,0.505503 7.79588,2.539223 10.13272,6.026047 0.44735,0.667492 1.28958,2.328467 1.57345,3.103028 0.73475,2.004835 1.1053,3.998098 1.17437,6.317362 0.15251,5.1203 -1.491,9.784501 -4.50793,12.793259 -2.19754,2.191595 -4.85674,3.436642 -8.26732,3.870785 -0.62368,0.07939 -2.84287,0.143914 -3.36926,0.09796 z m 2.4576,-3.208635 c 4.04972,-0.601328 6.12603,-3.9575 6.54415,-10.578047 0.0685,-1.085039 0.0683,-3.608432 -4.8e-4,-4.687173 -0.14282,-2.240975 -0.47492,-4.115109 -0.99801,-5.632082 -0.25086,-0.727495 -0.90109,-1.994998 -1.283,-2.500959 -1.09138,-1.445885 -2.50305,-2.260356 -4.33365,-2.500327 -1.91327,-0.250808 -3.73584,0.08155 -5.11553,0.932852 -0.57888,0.357182 -1.45974,1.224156 -1.86035,1.831035 -1.44005,2.181495 -2.1523,5.558948 -2.1482,10.186745 0.004,4.63727 0.7262,8.042043 2.16599,10.213068 0.38672,0.583113 1.22685,1.419127 1.79925,1.790417 0.75323,0.488594 1.7576,0.846493 2.7196,0.969108 0.59406,0.07572 1.92216,0.06268 2.51023,-0.02462 z m 23.89106,3.204797 c -0.38517,-0.04807 -0.97899,-0.199788 -1.34244,-0.342997 -1.86582,-0.735189 -2.99126,-2.487591 -3.39147,-5.28082 -0.16034,-1.119036 -0.18799,-2.289179 -0.18818,-7.962508 l -1.8e-4,-5.698787 h -2.45361 c -1.94174,0 -2.44816,-0.01373 -2.42747,-0.0658 0.7038,-1.771408 0.81094,-1.983292 1.19082,-2.35498 0.36782,-0.359898 0.85545,-0.604299 1.35765,-0.680472 0.20823,-0.03158 0.82111,-0.05742 1.36195,-0.05742 h 0.98335 l -0.029,-1.987337 c -0.0294,-2.019505 -0.0798,-2.700941 -0.29947,-4.052399 -0.11543,-0.710209 -0.27793,-1.400799 -0.39624,-1.683955 l -0.0723,-0.173011 1.90568,9.25e-4 c 2.17154,0.001 2.38124,0.02624 3.07849,0.369922 0.76988,0.379484 1.37811,1.119382 1.62495,1.976706 0.0774,0.268993 0.0925,0.664877 0.11104,2.930087 l 0.0215,2.619062 h 2.73326 c 1.5033,0 2.733271,0.01203 2.733271,0.02674 0,0.104436 -0.711224,1.769465 -0.844657,1.977403 -0.379094,0.590768 -1.029034,0.998014 -1.751904,1.097726 -0.22649,0.03124 -0.96759,0.0568 -1.64688,0.0568 h -1.23507 l 0.0161,5.883043 c 0.016,5.831341 0.0172,5.888195 0.13288,6.469104 0.3768,1.89183 1.14291,3.148267 2.32874,3.819203 0.75445,0.426858 1.87044,0.602387 2.944023,0.463049 0.214914,-0.02791 0.403586,-0.03788 0.419273,-0.0222 0.05343,0.05344 -1.124522,1.154468 -1.506286,1.407919 -1.36322,0.905038 -2.73917,1.309036 -4.40234,1.292588 -0.43868,-0.0043 -0.86867,-0.01677 -0.95554,-0.02761 z m 12.647457,-0.04356 C 75.359364,59.71177 74.478418,59.274332 73.835155,58.560402 73.043557,57.68184 72.654301,56.569559 72.41405,54.49966 c -0.0744,-0.641043 -0.09368,-1.670496 -0.126528,-6.75774 -0.02518,-3.900338 -0.05993,-6.195021 -0.09925,-6.554263 -0.183099,-1.67289 -0.390138,-2.869843 -0.585152,-3.382926 -0.05767,-0.151733 -0.104867,-0.281801 -0.104882,-0.289038 -1.4e-5,-0.0073 0.85874,-0.01274 1.908343,-0.01224 1.473707,5.97e-4 1.992304,0.01853 2.276882,0.07829 1.04339,0.219062 1.963381,1.024925 2.337512,2.047538 l 0.136788,0.373884 0.02957,6.554263 c 0.02588,5.73613 0.04031,6.616689 0.115628,7.054386 0.212414,1.234467 0.58778,1.976237 1.144596,2.261873 0.724719,0.371769 1.836775,-0.02776 3.26397,-1.172599 0.613075,-0.491791 2.263078,-2.17938 3.092875,-3.163327 l 0.750186,-0.889548 -4.78e-4,-3.822152 c -4.77e-4,-3.841327 -0.03227,-4.913003 -0.187611,-6.32277 -0.127205,-1.154435 -0.386065,-2.466782 -0.573724,-2.908619 -0.03686,-0.08678 0.07201,-0.09207 1.874873,-0.09121 2.159818,8.95e-4 2.377853,0.02629 3.039066,0.352067 0.534391,0.263291 1.118244,0.837318 1.394215,1.370749 0.363933,0.703457 0.34784,0.328605 0.349756,8.147148 0.001,4.148355 0.02353,7.379688 0.05465,7.844056 0.10868,1.62168 0.34502,3.202615 0.597743,3.998444 l 0.126194,0.397388 -1.902778,-8.95e-4 c -1.454902,-5.97e-4 -1.987221,-0.0188 -2.261529,-0.07693 -1.142215,-0.242019 -2.123954,-1.165597 -2.404341,-2.261899 -0.09535,-0.372813 -0.106279,-0.587637 -0.108388,-2.130316 -0.0021,-1.524165 -0.011,-1.703938 -0.07991,-1.610402 -0.04266,0.05791 -0.319964,0.473044 -0.61623,0.922522 -1.980276,3.004356 -4.280627,4.850256 -6.724416,5.395959 -0.545126,0.12173 -1.983124,0.150253 -2.59318,0.05144 z m 36.838545,-0.0027 c -4.66841,-0.62849 -7.75982,-3.982525 -8.5374,-9.262707 -0.13166,-0.894013 -0.13166,-3.212271 0,-4.106287 0.41931,-2.847328 1.44828,-5.039663 3.16272,-6.738516 0.72055,-0.713995 1.37706,-1.185194 2.26864,-1.628267 1.46253,-0.726799 2.84856,-1.031367 4.684,-1.029262 1.78137,0.0021 3.15918,0.308877 4.49873,1.00186 1.59498,0.82512 2.66777,2.035675 3.19178,3.601627 0.3592,1.07347 0.43273,2.469597 0.18867,3.582174 -0.76678,3.495319 -4.17621,5.653493 -10.22164,6.470295 -0.53502,0.07229 -1.13268,0.147617 -1.32812,0.167393 -0.28598,0.02895 -0.35536,0.05352 -0.35536,0.125887 0,0.04946 0.13622,0.36131 0.30271,0.69301 0.85432,1.70207 2.06267,2.730216 3.6858,3.136107 0.43931,0.10986 1.73103,0.123245 2.19724,0.02277 1.28396,-0.27671 2.22255,-0.749449 3.04685,-1.534606 0.59539,-0.567118 1.0381,-1.231405 1.24422,-1.866965 l 0.0676,-0.208566 0.16956,0.19615 c 0.73648,0.851984 0.87731,2.246013 0.35651,3.52897 -0.17228,0.424408 -0.34123,0.714297 -0.68697,1.178707 -0.99689,1.339073 -2.95517,2.371407 -5.06803,2.671682 -0.68027,0.09668 -2.1441,0.09594 -2.86755,-0.0015 z m -2.04444,-9.610727 c 1.96471,-0.676864 3.50016,-1.545595 4.58721,-2.595352 1.40668,-1.35844 1.94178,-2.777002 1.75258,-4.646209 -0.18707,-1.84821 -0.85524,-2.8359 -2.09639,-3.098907 -1.26789,-0.268672 -2.4966,0.181238 -3.3635,1.23159 -1.21736,1.475003 -1.86029,3.950097 -1.86198,7.168236 -6e-4,1.049384 0.0958,2.209696 0.18343,2.209696 0.01,0 0.36912,-0.121075 0.79865,-0.269054 z m 57.374,9.635651 c -4.62439,-0.615973 -7.72907,-3.786223 -8.5808,-8.76202 -0.50655,-2.959241 -0.12032,-6.083114 1.05434,-8.527601 1.52109,-3.165425 4.22736,-5.081546 7.70044,-5.452144 0.81779,-0.08726 2.49333,-0.03446 3.2216,0.10152 1.83506,0.342642 3.1404,0.9839 4.24153,2.08367 0.56841,0.56772 0.84325,0.93711 1.14836,1.543433 0.48472,0.963253 0.66832,1.77459 0.66743,2.94938 -0.001,1.913092 -0.6253,3.389952 -1.98458,4.698269 -1.70581,1.641845 -4.38671,2.677207 -8.36328,3.229904 -0.52119,0.07244 -1.11997,0.148029 -1.33063,0.167984 -0.45311,0.04292 -0.44914,-0.0097 -0.0607,0.803924 0.62299,1.304774 1.54234,2.258306 2.7007,2.801132 0.60783,0.284843 1.15577,0.419059 1.84927,0.452985 1.26511,0.06189 2.63065,-0.325791 3.73327,-1.059896 0.81547,-0.542919 1.63789,-1.587937 1.87579,-2.38348 0.0368,-0.123057 0.0809,-0.223381 0.0981,-0.222939 0.0646,0.0018 0.44518,0.56348 0.57,0.841514 0.41567,0.925975 0.3412,2.085628 -0.2039,3.175265 -0.85747,1.714018 -2.72572,2.974463 -5.132,3.462391 -0.46352,0.09399 -0.78849,0.118956 -1.70456,0.130963 -0.62252,0.0081 -1.29769,-0.0073 -1.50038,-0.03425 z m -2.41884,-9.5442 c 2.87258,-0.974311 4.85292,-2.307257 5.86997,-3.951029 0.47576,-0.768924 0.68069,-1.460281 0.719,-2.425631 0.0735,-1.85132 -0.43033,-3.232241 -1.3845,-3.795043 -0.51475,-0.303615 -1.55067,-0.424691 -2.20864,-0.258142 -1.33437,0.337759 -2.45001,1.606161 -3.07039,3.490795 -0.47027,1.428596 -0.73965,3.588966 -0.67405,5.405701 0.0305,0.84503 0.12711,1.710952 0.19088,1.710952 0.0187,0 0.26973,-0.07992 0.55773,-0.177603 z m -68.019743,9.154581 c -1.16615,-0.256719 -2.02433,-1.016629 -2.40904,-2.133172 l -0.11791,-0.342191 -0.029,-13.240134 c -0.0264,-12.042755 -0.0372,-13.311539 -0.11923,-14.029796 -0.159102,-1.392294 -0.368022,-2.506615 -0.585562,-3.123208 l -0.0799,-0.226341 2.065132,0.01842 c 1.95526,0.01744 2.08338,0.02453 2.40813,0.133216 0.944373,0.316064 1.714073,1.057652 2.066113,1.990655 l 0.11784,0.312296 0.0302,13.16117 c 0.022,9.566083 0.0472,13.319354 0.0924,13.74026 0.18489,1.722715 0.37828,2.867624 0.58607,3.469628 0.059,0.171023 0.10733,0.319088 0.10733,0.329032 0,0.0099 -0.85877,0.01621 -1.90837,0.01388 -1.372993,-0.003 -1.996993,-0.0237 -2.224243,-0.07372 z m 30.244363,-0.0042 c -1.15625,-0.249233 -2.18501,-1.263113 -2.41654,-2.381602 -0.0401,-0.193924 -0.0579,-2.344636 -0.0582,-7.054387 -2.9e-4,-3.838184 -0.0236,-7.220442 -0.0537,-7.801981 -0.0968,-1.869735 -0.34639,-3.618395 -0.63804,-4.469877 -0.0536,-0.156548 -0.0975,-0.294271 -0.0975,-0.306054 0,-0.01179 0.91799,-0.014 2.03998,-0.0049 l 2.03998,0.0165 0.44981,0.16109 c 0.82127,0.294118 1.4597,0.847486 1.81803,1.575789 0.28949,0.588374 0.33612,0.92602 0.33716,2.440909 l 9e-4,1.334976 0.48151,-0.440017 c 4.23978,-3.87439 5.54392,-4.810334 7.38075,-5.296946 0.50001,-0.132464 0.60771,-0.141705 1.66642,-0.142964 0.74446,-8.95e-4 1.23998,0.02233 1.44773,0.06783 2.06253,0.45174 3.04379,1.535482 3.417,3.773879 0.18662,1.119313 0.2014,1.664082 0.19354,7.133355 -0.009,6.473339 0.0416,7.817662 0.36853,9.739263 0.0926,0.543988 0.29726,1.403108 0.39197,1.645149 0.0339,0.08671 -0.075,0.09207 -1.85162,0.09121 -2.15609,-0.0012 -2.36343,-0.02632 -3.06913,-0.374206 -0.8456,-0.416848 -1.47125,-1.223783 -1.66843,-2.151823 -0.0749,-0.352538 -0.0803,-0.958778 -0.0501,-5.659304 0.0352,-5.484482 0.0141,-6.35814 -0.1769,-7.341386 -0.26553,-1.366851 -0.80499,-2.242554 -1.5562,-2.526196 -0.43485,-0.164191 -1.23372,-0.133331 -1.81224,0.07 -1.26203,0.443568 -2.58244,1.348326 -4.35996,2.987499 l -0.80283,0.74034 v 4.604347 c 0,2.644314 0.0232,4.933493 0.0546,5.377557 0.11264,1.596607 0.3743,3.270801 0.62069,3.971378 l 0.10645,0.302708 -1.9307,-0.0042 c -1.44433,-0.0031 -2.01691,-0.02277 -2.2729,-0.07794 z m 24.95358,2.63e-4 c -0.55122,-0.118387 -1.16847,-0.454489 -1.57584,-0.858067 -0.38459,-0.381006 -0.61154,-0.740746 -0.80194,-1.271145 l -0.12284,-0.342191 -0.0295,-7.765089 c -0.0261,-6.882859 -0.0397,-7.851818 -0.11982,-8.528438 -0.17353,-1.466148 -0.3944,-2.625099 -0.58904,-3.090959 l -0.0723,-0.17301 1.90568,8.95e-4 c 2.17154,8.96e-4 2.38123,0.02623 3.07848,0.369924 0.76868,0.37889 1.37251,1.112502 1.627,1.976705 0.0845,0.286986 0.0942,0.915028 0.1253,8.128749 0.0229,5.308953 0.0528,7.96978 0.0933,8.291536 0.19301,1.534898 0.37669,2.499628 0.61393,3.224487 l 0.0388,0.118452 -1.91451,-0.0042 c -1.42645,-0.0031 -2.00175,-0.02292 -2.2567,-0.07768 z m -2.90252,-26.195651 c 1.25497,-2.902127 2.24061,-4.421199 3.19635,-4.926247 0.62116,-0.328238 0.74816,-0.344562 2.87776,-0.369873 l 1.93443,-0.02299 -0.16111,0.386584 c -0.346,0.830174 -1.32231,2.731817 -1.68502,3.282042 -0.64494,0.978384 -1.29081,1.51979 -2.07967,1.743307 -0.25754,0.07297 -0.64723,0.09244 -2.24669,0.112271 l -1.93511,0.02399 z"
       id="path6" /></g></svg>
